<svg xmlns="http://www.w3.org/2000/svg" viewBox="0 0 118.48 125.95"><defs><style>.cls-1{fill:#77b955;}</style></defs><title>light-icon</title><g id="图层_2" data-name="图层 2"><g id="图层_1-2" data-name="图层 1"><g id="虫部落logo"><path class="cls-1" d="M113.87,31.67c-2.42-4.62-12.24-12.62-25-20C76.41,4.49,64.83,0,59.44,0c-5.21-.22-17,4.29-29.81,11.66-12.46,7.19-22.12,15-24.82,19.65C2,35.72,0,48.23,0,63,0,77.35,1.92,89.61,4.6,94.29c2.42,4.62,12.24,12.61,25,20,12.46,7.2,24,11.66,29.43,11.68,4.54.18,14.12-3.22,25-9a1.82,1.82,0,0,0,.59-2.43c0-.06-12.16-21-12.16-21.05a1.83,1.83,0,0,0-2.37-.73h0a31.89,31.89,0,1,1,9.4-5.44,1.82,1.82,0,0,0-.59,2.43l12.19,21a1.82,1.82,0,0,0,2.48.67.57.57,0,0,0,.13-.08h0c10.08-6.31,17.65-12.7,20-16.74,2.79-4.41,4.81-16.91,4.81-31.65C118.48,48.6,116.56,36.34,113.87,31.67Z"/><circle class="cls-1" cx="59.04" cy="62.85" r="24.28" transform="translate(-12.86 15.25) rotate(-13.28)"/></g></g></g></svg>