<svg xmlns="http://www.w3.org/2000/svg" xml:space="preserve" viewBox="0 0 256 256"><path fill="#608392" stroke="#608392" d="M4.739 173.368a7.494 7.494 0 0 1 .771-9.326L151.018 9.97a1.665 1.665 0 0 1 2.748 1.784L56.802 244.547a2.266 2.266 0 0 1-3.972.392zm63.025 73.748a2.59 2.59 0 0 1-3.145-3.473L161.358 10.49a3.755 3.755 0 0 1 6.858-.172l83.031 174.814a5.291 5.291 0 0 1-3.242 7.334z"/><path fill="#fff" stroke="#fff" d="M157.16 46.204a1.312 1.312 0 0 1 2.38-.09l65.237 127.831a4.666 4.666 0 0 1-2.773 6.578L89.27 221.717a3.071 3.071 0 0 1-3.745-4.118z"/><path fill="#4a5c64" stroke="#4a5c64" d="M122.186 161.673a1.777 1.777 0 0 1-2.28-2.348l18.607-44.25a1.03 1.03 0 0 1 1.898 0l13.289 31.631a2.528 2.528 0 0 1-1.419 3.336z"/><path fill="#65737a" stroke="#65737a" d="M144.053 106.028a6.963 6.963 0 0 1 .006-5.24l1.328-3.258a1.1 1.1 0 0 1 2.023-.026l25.11 57.27a2.691 2.691 0 0 1-1.544 3.61L113.52 179.33a.973.973 0 0 1-1.227-1.3l1.943-4.487a6.702 6.702 0 0 1 3.851-3.63l43.333-15.834a1.875 1.875 0 0 0 1.094-2.463z"/><path fill="#768287" stroke="#768287" d="M150.657 89.417a5.679 5.679 0 0 1-.13-4.305l2.24-5.974a.977.977 0 0 1 1.801-.069l40.106 86.326a2.05 2.05 0 0 1-1.213 2.81l-88.698 29.468a1.152 1.152 0 0 1-1.417-1.559l2.45-5.557a6.82 6.82 0 0 1 4.005-3.689l70.767-24.565a2.169 2.169 0 0 0 1.27-2.932z"/><path fill="#929a9d" stroke="#929a9d" d="M158.986 63.692a1.187 1.187 0 0 1 2.185-.073l53.884 107.969a3.16 3.16 0 0 1-1.862 4.42L99.531 212.453a1.662 1.662 0 0 1-2.002-2.309l1.295-2.666a3.918 3.918 0 0 1 2.303-2.01l102.627-33.653a1.836 1.836 0 0 0 1.08-2.545l-47.162-97.276a5.912 5.912 0 0 1-.112-4.946z"/></svg>