<svg xmlns="http://www.w3.org/2000/svg" viewBox="0 0 449.58 448.78"><path d="M424.4,204.8A169.41,169.41,0,0,0,411.2,173c16.7-18.2,37.3-39.8,15.4-63.4-35.7-37.3-46-48.8-87.7-8.9a176.34,176.34,0,0,0-31.8-13.2c-1.5-40-5.6-58.6-51.1-55.7-.14,0-.26,0-.4,0s-.26,0-.4,0c-45.5-2.9-49.6,15.7-51.1,55.7a176.34,176.34,0,0,0-31.8,13.2c-41.7-39.9-52-28.4-87.7,8.9C62.7,133.2,83.3,154.8,100,173a169.41,169.41,0,0,0-13.2,31.8C29.1,206,30,221.6,31.1,273.1c1.2,32.2,31,32.9,55.7,33.9A176.34,176.34,0,0,0,100,338.8c-40,41.6-28.3,52,8.9,87.7,23.6,21.9,45.2,1.3,63.4-15.4a169.41,169.41,0,0,0,31.8,13.2c.72,34.48,6.56,48,22.2,53.12A31.76,31.76,0,0,0,238.8,480l5.95.13c3.36.13,7,.17,10.85.15s7.49,0,10.85-.15l5.95-.13a31.75,31.75,0,0,0,12.73-2.66c15.47-5.14,21.26-18.73,22-53a169.41,169.41,0,0,0,31.8-13.2c18.2,16.7,39.8,37.3,63.4,15.4,37.2-35.7,48.9-46.1,8.9-87.7A176.34,176.34,0,0,0,424.4,307c24.7-1,54.5-1.7,55.7-33.9C481.2,221.6,482.1,206,424.4,204.8Z" transform="translate(-30.81 -31.51)" style="fill:#0060e6"/><path d="M227.65,192.1v187a6.23,6.23,0,0,0,6.2,6.2h43.2a6.23,6.23,0,0,0,6.2-6.2v-187a6.23,6.23,0,0,1,6.2-6.2h63a6.23,6.23,0,0,0,6.2-6.2V144.9a6.23,6.23,0,0,0-6.2-6.2H158.75a6.23,6.23,0,0,0-6.2,6.2v34.7a6.23,6.23,0,0,0,6.2,6.2h62.6a6.27,6.27,0,0,1,6.3,6.3Z" transform="translate(-30.81 -31.51)" style="fill:#fff;fill-rule:evenodd"/></svg>