
<svg xmlns="http://www.w3.org/2000/svg" width="32" height="32" viewBox="0 0 32 32"><g fill="currentColor"><path d="M10 8a1 1 0 0 0 0 2V8Zm4 2a1 1 0 1 0 0-2v2Zm-4 5a1 1 0 1 0 0 2v-2Zm12 2a1 1 0 1 0 0-2v2Zm-12 2a1 1 0 1 0 0 2v-2Zm12 2a1 1 0 1 0 0-2v2Zm-12 2a1 1 0 1 0 0 2v-2Zm4 2a1 1 0 1 0 0-2v2ZM8 4h16V2H8v2Zm17 1v22h2V5h-2Zm-1 23H8v2h16v-2ZM7 27V5H5v22h2Zm1 1a1 1 0 0 1-1-1H5a3 3 0 0 0 3 3v-2Zm17-1a1 1 0 0 1-1 1v2a3 3 0 0 0 3-3h-2ZM24 4a1 1 0 0 1 1 1h2a3 3 0 0 0-3-3v2ZM8 2a3 3 0 0 0-3 3h2a1 1 0 0 1 1-1V2Zm2 8h4V8h-4v2Zm0 7h12v-2H10v2Zm0 4h12v-2H10v2Zm0 4h4v-2h-4v2Z"/><circle cx="22" cy="9" r=".5" stroke="currentColor"/></g></svg>